HIERARCHY
ROOT reference
{
  OFFSET 0 0 0
  CHANNELS 6 Xposition Yposition Zposition Zrotation Xrotation Yrotation
  JOINT Hips
  {
    OFFSET 349.773 89.4622 219.413
    CHANNELS 3 Zrotation Xrotation Yrotation
    JOINT RightUpLeg
    {
      OFFSET -9.25229 -1.56476 -0.00486621
      CHANNELS 3 Zrotation Xrotation Yrotation
      JOINT RightLeg
      {
        OFFSET 0.0546168 -41.8841 0.068862
        CHANNELS 3 Zrotation Xrotation Yrotation
        JOINT RightFoot
        {
          OFFSET -1.63893 -40.8901 3.53979
          CHANNELS 3 Zrotation Xrotation Yrotation
          End Site
          {
            OFFSET 0 -7.69 17.5
          }
        }
      }
    }
    JOINT LeftUpLeg
    {
      OFFSET 9.30241 -1.63853 -0.0284428
      CHANNELS 3 Zrotation Xrotation Yrotation
      JOINT LeftLeg
      {
        OFFSET 0.0539686 -41.842 -0.0517406
        CHANNELS 3 Zrotation Xrotation Yrotation
        JOINT LeftFoot
        {
          OFFSET 1.12518 -42.5382 -2.5849
          CHANNELS 3 Zrotation Xrotation Yrotation
          End Site
          {
            OFFSET 0 -7.69 17.5
          }
        }
      }
    }
    JOINT Spine
    {
      OFFSET 0.0144198 14.3187 0.0981135
      CHANNELS 3 Zrotation Xrotation Yrotation
      JOINT Spine1
      {
        OFFSET 0.0112165 9.7169 0.0514987
        CHANNELS 3 Zrotation Xrotation Yrotation
        JOINT Spine2
        {
          OFFSET 0.0255827 10.1205 -0.00638435
          CHANNELS 3 Zrotation Xrotation Yrotation
          JOINT Spine3
          {
            OFFSET -0.00190646 9.72552 0.024249
            CHANNELS 3 Zrotation Xrotation Yrotation
            JOINT Neck
            {
              OFFSET -0.136438 10.3681 0.0553958
              CHANNELS 3 Zrotation Xrotation Yrotation
              JOINT Head
              {
                OFFSET 0.0264476 9.5071 0.170402
                CHANNELS 3 Zrotation Xrotation Yrotation
                End Site
                {
                  OFFSET 0 15.95 0
                }
              }
            }
            JOINT RightShoulder
            {
              OFFSET -3.1747 6.92483 0.00547946
              CHANNELS 3 Zrotation Xrotation Yrotation
              JOINT RightArm
              {
                OFFSET -12.7755 -0.0136287 0.0362428
                CHANNELS 3 Zrotation Xrotation Yrotation
                JOINT RightForeArm
                {
                  OFFSET -26.5642 -0.108975 -0.0233747
                  CHANNELS 3 Zrotation Xrotation Yrotation
                  JOINT RightHand
                  {
                    OFFSET -25.905 -0.185223 0.00356295
                    CHANNELS 3 Zrotation Xrotation Yrotation
                    JOINT RightHandThumb1
                    {
                      OFFSET -2.48905 0.190105 3.12053
                      CHANNELS 3 Zrotation Xrotation Yrotation
                      JOINT RightHandThumb2
                      {
                        OFFSET -3.68274 0 0
                        CHANNELS 3 Zrotation Xrotation Yrotation
                        JOINT RightHandThumb3
                        {
                          OFFSET -2.55832 0 0
                          CHANNELS 3 Zrotation Xrotation Yrotation
                          End Site
                          {
                            OFFSET -2.194 0 0
                          }
                        }
                      }
                    }
                    JOINT RightInHandIndex
                    {
                      OFFSET -3.22368 0.508421 1.97842
                      CHANNELS 3 Zrotation Xrotation Yrotation
                      JOINT RightHandIndex1
                      {
                        OFFSET -5.21684 -0.091368 0.999158
                        CHANNELS 3 Zrotation Xrotation Yrotation
                        JOINT RightHandIndex2
                        {
                          OFFSET -3.61937 0 0
                          CHANNELS 3 Zrotation Xrotation Yrotation
                          JOINT RightHandIndex3
                          {
                            OFFSET -2.0521 0 0
                            CHANNELS 3 Zrotation Xrotation Yrotation
                            End Site
                            {
                              OFFSET -1.805 0 0
                            }
                          }
                        }
                      }
                    }
                    JOINT RightInHandMiddle
                    {
                      OFFSET -3.38211 0.517263 0.756737
                      CHANNELS 3 Zrotation Xrotation Yrotation
                      JOINT RightHandMiddle1
                      {
                        OFFSET -5.17411 -0.084 0.313895
                        CHANNELS 3 Zrotation Xrotation Yrotation
                        JOINT RightHandMiddle2
                        {
                          OFFSET -3.94947 0 0
                          CHANNELS 3 Zrotation Xrotation Yrotation
                          JOINT RightHandMiddle3
                          {
                            OFFSET -2.47579 0 0
                            CHANNELS 3 Zrotation Xrotation Yrotation
                            End Site
                            {
                              OFFSET -1.975 0 0
                            }
                          }
                        }
                      }
                    }
                    JOINT RightInHandRing
                    {
                      OFFSET -3.36516 0.537895 -0.128947
                      CHANNELS 3 Zrotation Xrotation Yrotation
                      JOINT RightHandRing1
                      {
                        OFFSET -4.63474 -0.022105 -0.478947
                        CHANNELS 3 Zrotation Xrotation Yrotation
                        JOINT RightHandRing2
                        {
                          OFFSET -3.44238 0 0
                          CHANNELS 3 Zrotation Xrotation Yrotation
                          JOINT RightHandRing3
                          {
                            OFFSET -2.3881 0 0
                            CHANNELS 3 Zrotation Xrotation Yrotation
                            End Site
                            {
                              OFFSET -1.857 0 0
                            }
                          }
                        }
                      }
                    }
                    JOINT RightInHandPinky
                    {
                      OFFSET -3.16105 0.469368 -1.20179
                      CHANNELS 3 Zrotation Xrotation Yrotation
                      JOINT RightHandPinky1
                      {
                        OFFSET -4.14105 -0.022105 -1.09053
                        CHANNELS 3 Zrotation Xrotation Yrotation
                        JOINT RightHandPinky2
                        {
                          OFFSET -2.75653 0 0
                          CHANNELS 3 Zrotation Xrotation Yrotation
                          JOINT RightHandPinky3
                          {
                            OFFSET -1.74189 0 0
                            CHANNELS 3 Zrotation Xrotation Yrotation
                            End Site
                            {
                              OFFSET -1.645 0 0
                            }
                          }
                        }
                      }
                    }
                  }
                }
              }
            }
            JOINT LeftShoulder
            {
              OFFSET 3.23079 6.93624 -0.032633
              CHANNELS 3 Zrotation Xrotation Yrotation
              JOINT LeftArm
              {
                OFFSET 12.8235 -0.00564763 -0.0637926
                CHANNELS 3 Zrotation Xrotation Yrotation
                JOINT LeftForeArm
                {
                  OFFSET 26.4641 -0.00020372 -0.0407631
                  CHANNELS 3 Zrotation Xrotation Yrotation
                  JOINT LeftHand
                  {
                    OFFSET 25.9912 -0.0207868 -0.0178714
                    CHANNELS 3 Zrotation Xrotation Yrotation
                    JOINT LeftHandThumb1
                    {
                      OFFSET 2.48905 0.190105 3.12053
                      CHANNELS 3 Zrotation Xrotation Yrotation
                      JOINT LeftHandThumb2
                      {
                        OFFSET 3.68274 0 0
                        CHANNELS 3 Zrotation Xrotation Yrotation
                        JOINT LeftHandThumb3
                        {
                          OFFSET 2.55832 0 0
                          CHANNELS 3 Zrotation Xrotation Yrotation
                          End Site
                          {
                            OFFSET 2.194 0 0
                          }
                        }
                      }
                    }
                    JOINT LeftInHandIndex
                    {
                      OFFSET 3.22368 0.508421 1.97842
                      CHANNELS 3 Zrotation Xrotation Yrotation
                      JOINT LeftHandIndex1
                      {
                        OFFSET 5.21684 -0.091368 0.999158
                        CHANNELS 3 Zrotation Xrotation Yrotation
                        JOINT LeftHandIndex2
                        {
                          OFFSET 3.61937 0 0
                          CHANNELS 3 Zrotation Xrotation Yrotation
                          JOINT LeftHandIndex3
                          {
                            OFFSET 2.0521 0 0
                            CHANNELS 3 Zrotation Xrotation Yrotation
                            End Site
                            {
                              OFFSET 1.805 0 0
                            }
                          }
                        }
                      }
                    }
                    JOINT LeftInHandMiddle
                    {
                      OFFSET 3.38211 0.517263 0.756737
                      CHANNELS 3 Zrotation Xrotation Yrotation
                      JOINT LeftHandMiddle1
                      {
                        OFFSET 5.17411 -0.084 0.313895
                        CHANNELS 3 Zrotation Xrotation Yrotation
                        JOINT LeftHandMiddle2
                        {
                          OFFSET 3.94947 0 0
                          CHANNELS 3 Zrotation Xrotation Yrotation
                          JOINT LeftHandMiddle3
                          {
                            OFFSET 2.47579 0 0
                            CHANNELS 3 Zrotation Xrotation Yrotation
                            End Site
                            {
                              OFFSET 1.975 0 0
                            }
                          }
                        }
                      }
                    }
                    JOINT LeftInHandRing
                    {
                      OFFSET 3.36516 0.537895 -0.128947
                      CHANNELS 3 Zrotation Xrotation Yrotation
                      JOINT LeftHandRing1
                      {
                        OFFSET 4.63474 -0.022105 -0.478947
                        CHANNELS 3 Zrotation Xrotation Yrotation
                        JOINT LeftHandRing2
                        {
                          OFFSET 3.44238 0 0
                          CHANNELS 3 Zrotation Xrotation Yrotation
                          JOINT LeftHandRing3
                          {
                            OFFSET 2.3881 0 0
                            CHANNELS 3 Zrotation Xrotation Yrotation
                            End Site
                            {
                              OFFSET 1.857 0 0
                            }
                          }
                        }
                      }
                    }
                    JOINT LeftInHandPinky
                    {
                      OFFSET 3.16105 0.469368 -1.20179
                      CHANNELS 3 Zrotation Xrotation Yrotation
                      JOINT LeftHandPinky1
                      {
                        OFFSET 4.14105 -0.022105 -1.09053
                        CHANNELS 3 Zrotation Xrotation Yrotation
                        JOINT LeftHandPinky2
                        {
                          OFFSET 2.75653 0 0
                          CHANNELS 3 Zrotation Xrotation Yrotation
                          JOINT LeftHandPinky3
                          {
                            OFFSET 1.74189 0 0
                            CHANNELS 3 Zrotation Xrotation Yrotation
                            End Site
                            {
                              OFFSET 1.645 0 0
                            }
                          }
                        }
                      }
                    }
                  }
                }
              }
            }
          }
        }
      }
    }
  }
}
MOTION
Frames: 2
Frame Time: 0.00833333
4.500000000000000000e+02 0.000000000000000000e+00 0.000000000000000000e+00 0.000000000000000000e+00 0.000000000000000000e+00 0.000000000000000000e+00 1.233372131443862853e-02 -1.810518641430162654e-02 1.105750765326736496e-02 -1.486987019586527570e-02 -6.761312210330038333e-03 -2.734594256894402539e-02 -2.255779605238745003e-02 -9.703638622744077333e-03 1.454587041827542539e-02 -8.379518587183148320e-03 1.812759118601791480e-02 7.117650822688431807e-03 -1.171337872396013315e-02 -6.232715178089859049e-04 -8.360205820987332698e-03 -8.187682440313898136e-03 -1.703860221347146958e-02 -8.146183704208474069e-03 -5.864327279743478290e-03 8.793508732231624520e-03 1.273687279033328991e-02 -8.607968089986888297e-03 3.286486837001572139e-04 2.314419254846685273e-03 -2.789306302504413523e-03 1.406164883632128897e-04 1.875817318528375877e-04 -3.869185153216468838e-03 -5.277474041188121587e-04 -7.434376158262421099e-04 -2.745105707978867660e-04 3.079673633395777453e-04 -5.138690547379149614e-04 -5.304282200904791508e-04 3.213971037281646882e-04 -4.795224376128649660e-05 -2.441242092840855554e-02 -3.436923893936025612e-03 -2.179913618652545501e-02 1.881522835800648885e-02 -6.424329030384090533e-03 -6.361304134189204804e-03 -2.464865769153799790e-02 -2.096283387872049236e-02 8.568306993104502639e-03 -5.823377310023147846e-02 -1.554918254811176459e-01 -6.462709150557260918e-02 -1.056320046931212564e-02 8.700197000434123362e-02 -2.691572650598390848e-02 0.000000000000000000e+00 0.000000000000000000e+00 0.000000000000000000e+00 3.055082462474187570e-15 1.204901319599698721e-17 0.000000000000000000e+00 2.436859739720764113e-15 -1.909954051599229230e-16 0.000000000000000000e+00 1.270573496625650650e-16 -2.770444634911806596e-15 -2.628117519298281649e-15 0.000000000000000000e+00 0.000000000000000000e+00 0.000000000000000000e+00 0.000000000000000000e+00 4.933027695907561627e-16 1.134447612331009113e-14 0.000000000000000000e+00 2.006234122973284900e-15 6.206416202135705489e-15 1.270573496625650650e-16 -2.770444634911806596e-15 -2.628117519298281649e-15 0.000000000000000000e+00 1.061007700752648717e-17 4.501721448110584106e-15 0.000000000000000000e+00 1.804353020368184727e-15 9.302145055291384709e-15 0.000000000000000000e+00 3.900246181226737201e-15 9.680514220681590048e-15 1.270573496625650650e-16 -2.770444634911806596e-15 -2.628117519298281649e-15 0.000000000000000000e+00 0.000000000000000000e+00 0.000000000000000000e+00 0.000000000000000000e+00 1.931943393002831944e-15 9.245076887307273499e-15 0.000000000000000000e+00 -1.227888337984763924e-15 6.461520649846248650e-15 1.270573496625650650e-16 -2.770444634911806596e-15 -2.628117519298281649e-15 0.000000000000000000e+00 0.000000000000000000e+00 0.000000000000000000e+00 0.000000000000000000e+00 1.550955589010273284e-15 5.504846574530984453e-15 0.000000000000000000e+00 1.152548450123210652e-15 2.288882229959175879e-15 -7.456356436537910776e-03 -7.773489490544612489e-03 -1.300861550039082151e-03 -1.914823052279129509e-02 -1.982477153936828065e-02 2.502895945349962667e-02 -2.136891094398612190e-01 5.121588167578992185e-03 -1.971193619222908755e-01 4.125360552422055460e-02 -4.203298950640289161e-02 1.987308280533163843e-02 0.000000000000000000e+00 0.000000000000000000e+00 0.000000000000000000e+00 -2.594424855563901416e-15 -5.761287052931209045e-15 0.000000000000000000e+00 -2.879317483912221628e-15 -2.368577259720077464e-15 0.000000000000000000e+00 8.972537355591831195e-16 -4.907725650398960654e-15 -2.193948325296851898e-15 0.000000000000000000e+00 0.000000000000000000e+00 0.000000000000000000e+00 0.000000000000000000e+00 2.582828068544187330e-15 -1.804684500305122276e-15 0.000000000000000000e+00 7.563161745734547533e-16 -6.736544337391310758e-15 8.972537355591831195e-16 -4.907725650398960654e-15 -2.193948325296851898e-15 0.000000000000000000e+00 1.621234453788918753e-15 2.683953980613896124e-15 0.000000000000000000e+00 2.656442156640060989e-15 6.350022817791499955e-16 0.000000000000000000e+00 1.486685429754132309e-15 -4.136488820183206344e-15 8.972537355591831195e-16 -4.907725650398960654e-15 -2.193948325296851898e-15 0.000000000000000000e+00 0.000000000000000000e+00 0.000000000000000000e+00 0.000000000000000000e+00 -1.305053593829996136e-15 -6.079279035099270875e-15 0.000000000000000000e+00 -5.818021976008957103e-16 -5.422194051780144226e-15 8.972537355591831195e-16 -4.907725650398960654e-15 -2.193948325296851898e-15 0.000000000000000000e+00 0.000000000000000000e+00 0.000000000000000000e+00 0.000000000000000000e+00 4.405205937857564013e-16 -7.836809186119739722e-15 0.000000000000000000e+00 8.719157836668839841e-16 -9.534951751926885585e-15
4.500000000000000000e+02 0.000000000000000000e+00 0.000000000000000000e+00 0.000000000000000000e+00 0.000000000000000000e+00 0.000000000000000000e+00 1.112230155280849453e-02 -1.531951184027541442e-02 1.815890140450190232e-02 -1.927209801222096522e-02 -4.564846924049065571e-03 -3.429332780844202011e-02 -1.946694316812557293e-02 -8.078138876790937062e-03 1.533736855815994067e-02 -1.023550117080796254e-02 1.343829601594503584e-02 2.715467060483720951e-03 -1.613825394111738018e-02 -2.681086367328704839e-03 -1.969874583865422607e-02 -1.014475106255628180e-02 -1.873361395751103192e-02 -7.084346965787406691e-03 -4.583296067322547435e-03 1.085098104615388713e-02 1.435833628275117249e-02 -4.994750936944516821e-03 1.526280380994432702e-03 -2.081213944033083636e-03 -1.801576786430007533e-03 8.583734925085329285e-05 -4.238374197991867740e-04 -2.733535373422231549e-03 -7.163220784797721908e-04 -2.033203648691149328e-03 -1.877660607407970130e-04 1.736334902404410116e-04 -2.495046774359965152e-04 -5.009875459542643744e-04 2.633229671625027246e-04 3.228738592073330453e-04 -1.792524922541154433e-02 -1.006335870505654061e-02 -1.664297868008361714e-02 1.584490258572307519e-02 -1.044715171154841221e-02 -9.105563318319808558e-03 -4.047935384692481070e-02 1.446439893694016071e-02 1.466706669733389666e-02 -6.533938892765858708e-02 -1.382341692838046920e-01 -5.812848811054348308e-02 -3.447103581593583595e-03 7.332579718395099144e-02 -2.420197922292144019e-02 0.000000000000000000e+00 0.000000000000000000e+00 0.000000000000000000e+00 2.511753075658267821e-15 8.796752082678734611e-17 0.000000000000000000e+00 1.701264016497281689e-15 3.531170044940736765e-17 0.000000000000000000e+00 4.223177138696366676e-16 -3.012074913634284120e-15 -2.846215295584688704e-15 0.000000000000000000e+00 0.000000000000000000e+00 0.000000000000000000e+00 0.000000000000000000e+00 -1.325853677256937920e-17 1.086741072864898053e-14 0.000000000000000000e+00 2.063782914837525467e-15 6.806821458845914807e-15 4.223177138696366676e-16 -3.012074913634284120e-15 -2.846215295584688704e-15 0.000000000000000000e+00 -6.396505796069330390e-16 5.197523254645657390e-15 0.000000000000000000e+00 2.146382922380998605e-15 8.745442051127757913e-15 0.000000000000000000e+00 3.784369798638742841e-15 9.635945391107947214e-15 4.223177138696366676e-16 -3.012074913634284120e-15 -2.846215295584688704e-15 0.000000000000000000e+00 0.000000000000000000e+00 0.000000000000000000e+00 0.000000000000000000e+00 1.661781010010050454e-15 8.876768293283591303e-15 0.000000000000000000e+00 -1.481200749076987136e-15 6.596439912945440539e-15 4.223177138696366676e-16 -3.012074913634284120e-15 -2.846215295584688704e-15 0.000000000000000000e+00 0.000000000000000000e+00 0.000000000000000000e+00 0.000000000000000000e+00 1.385305377881498327e-15 4.986033441162721472e-15 0.000000000000000000e+00 1.504476678126598874e-15 2.393939745218357144e-15 -7.929198207457828843e-03 -1.085694031416688243e-02 -1.591688459208234329e-03 -2.987865302096592152e-02 -1.719909355999885495e-02 2.328412668319763956e-02 -2.440061927151459253e-01 4.248834686881158840e-02 -2.365523706446850394e-01 2.692557884749452457e-02 -5.316991565364102834e-02 5.217044070511299599e-03 0.000000000000000000e+00 0.000000000000000000e+00 0.000000000000000000e+00 -2.785285303968816803e-15 -6.458113831947489746e-15 0.000000000000000000e+00 -3.226265748121247132e-15 -3.130312358664685430e-15 0.000000000000000000e+00 1.019859912251400136e-15 -5.211120130660427385e-15 -2.663196589786640527e-15 0.000000000000000000e+00 0.000000000000000000e+00 0.000000000000000000e+00 0.000000000000000000e+00 2.638248056827492706e-15 -2.138034561809561051e-15 0.000000000000000000e+00 1.181122644000136422e-15 -7.259873500414022141e-15 1.019859912251400136e-15 -5.211120130660427385e-15 -2.663196589786640527e-15 0.000000000000000000e+00 1.828269892065181886e-15 2.555263142598200026e-15 0.000000000000000000e+00 3.090327426931403591e-15 1.238509468609419248e-15 0.000000000000000000e+00 1.729996669094467273e-15 -4.096147945075395859e-15 1.019859912251400136e-15 -5.211120130660427385e-15 -2.663196589786640527e-15 0.000000000000000000e+00 0.000000000000000000e+00 0.000000000000000000e+00 0.000000000000000000e+00 -1.360183190437941618e-15 -6.149785703473405124e-15 0.000000000000000000e+00 -5.784622675276337209e-16 -5.763048993451830321e-15 1.019859912251400136e-15 -5.211120130660427385e-15 -2.663196589786640527e-15 0.000000000000000000e+00 0.000000000000000000e+00 0.000000000000000000e+00 0.000000000000000000e+00 5.682653435490200460e-17 -8.659346283551441210e-15 0.000000000000000000e+00 9.002507989332417773e-16 -9.947701918801890635e-15
